<svg xmlns="http://www.w3.org/2000/svg" width="24" height="24" viewBox="0 0 24 24" fill="none" stroke="currentColor" stroke-width="2" stroke-linecap="round" stroke-linejoin="round"><line x1="1" y1="1" x2="23" y2="23"/><path d="M16.72 11.06A10.94 10.94 0 0 1 19 12.87"/><path d="M5 4.87A19.79 19.79 0 0 0 2.12 4.11 2 2 0 0 0 4.11 2h3a2 2 0 0 1 2 1.72 12.84 12.84 0 0 0 .7 2.81 2 2 0 0 1-.45 2.11L8.09 9.91"/><path d="M14.05 18.36a19.5 19.5 0 0 1-6-6"/><path d="M22 16.92v3a2 2 0 0 1-2.18 2 19.79 19.79 0 0 1-8.63-3.07"/></svg>
